<?xml version="1.0" standalone="no"?>
<!DOCTYPE svg PUBLIC "-//W3C//DTD SVG 20010904//EN"
 "http://www.w3.org/TR/2001/REC-SVG-20010904/DTD/svg10.dtd">
<svg version="1.0" xmlns="http://www.w3.org/2000/svg"
 width="320.000000pt" height="320.000000pt" viewBox="0 0 320.000000 320.000000"
 preserveAspectRatio="xMidYMid meet">
<metadata>
Created by potrace 1.11, written by Peter Selinger 2001-2013
</metadata>
<g transform="translate(0.000000,320.000000) scale(0.100000,-0.100000)"
fill="#000000" stroke="none">
<path d="M230 2065 l0 -475 -96 0 c-94 0 -95 0 -88 -22 20 -66 76 -108 144
-108 39 0 40 -1 40 -35 l0 -35 80 0 80 0 0 29 0 28 48 -24 c47 -24 111 -28
155 -9 16 8 17 -3 17 -151 l0 -159 94 -92 93 -92 100 0 c55 0 141 -3 191 -6
l92 -7 0 92 c0 74 -3 91 -15 91 -11 0 -15 12 -15 50 0 38 4 50 15 50 10 0 15
10 15 30 l0 30 -60 0 -60 0 0 -30 c0 -20 5 -30 15 -30 11 0 15 -12 15 -50 0
-38 -4 -50 -15 -50 -8 0 -15 -4 -15 -10 0 -6 -39 -10 -98 -10 l-98 0 -52 53
-52 53 0 142 0 142 79 0 c86 0 118 15 146 70 30 58 27 60 -105 60 -112 0 -120
1 -120 19 0 11 26 44 58 75 l57 56 80 -1 c44 0 74 -3 68 -6 -7 -2 -13 -18 -13
-34 l0 -29 95 0 95 0 0 30 c0 17 -4 30 -10 30 -6 0 -10 32 -10 75 l0 75 -190
0 -191 0 -94 -91 -95 -92 0 -53 0 -54 -110 0 -110 0 0 54 c0 49 -2 55 -22 59
l-23 4 23 2 c20 1 22 6 22 50 0 49 -1 50 -32 54 l-33 4 33 1 c32 2 32 3 32 51
0 43 -3 50 -22 54 l-23 4 23 2 c20 1 22 6 22 55 0 54 0 55 -32 59 l-33 4 33 1
c31 2 32 3 32 46 0 38 -3 45 -22 49 l-23 4 23 2 c20 1 22 6 22 50 0 49 -1 50
-32 54 l-33 4 33 1 32 2 0 104 0 105 -32 4 -33 4 33 1 c29 2 32 5 32 32 l0 30
-80 0 -80 0 0 -475z m147 299 c-3 -3 -12 -4 -19 -1 -8 3 -5 6 6 6 11 1 17 -2
13 -5z m-56 -849 c-1 -15 -24 -12 -29 3 -3 9 2 13 12 10 10 -1 17 -7 17 -13z"/>
<path d="M534 2376 c-11 -29 1 -51 29 -54 25 -3 27 -1 27 32 0 32 -3 36 -25
36 -14 0 -28 -6 -31 -14z"/>
<path d="M680 2175 c0 -205 1 -215 19 -215 11 0 21 6 23 12 4 10 10 10 32 0
49 -22 99 -15 131 18 26 27 30 40 33 100 5 86 0 110 -34 143 -21 21 -36 27
-71 27 -24 0 -53 -5 -64 -10 -18 -10 -19 -7 -19 65 0 73 -1 75 -25 75 l-25 0
0 -215z m167 8 c11 -16 18 -46 18 -73 0 -88 -58 -129 -112 -78 -20 18 -23 31
-23 89 0 76 9 88 67 89 25 0 37 -7 50 -27z"/>
<path d="M534 2247 c-2 -7 -3 -74 -2 -148 l3 -134 28 -3 27 -3 0 150 0 151
-25 0 c-14 0 -28 -6 -31 -13z"/>
<path d="M997 2253 c-2 -5 -2 -72 1 -150 5 -142 5 -143 28 -143 24 0 24 1 24
110 0 105 1 110 25 126 14 9 32 13 45 9 17 -5 20 -2 20 24 0 28 -3 31 -33 31
-18 0 -39 -6 -46 -12 -11 -10 -14 -10 -18 0 -5 13 -39 17 -46 5z"/>
<path d="M1213 2248 c-25 -12 -28 -24 -14 -47 8 -12 14 -13 36 -3 34 15 98 15
113 0 7 -7 12 -19 12 -29 0 -13 -13 -17 -62 -22 -70 -6 -108 -29 -120 -73 -9
-34 4 -81 29 -100 24 -18 97 -17 133 1 27 14 30 14 30 0 0 -9 9 -15 26 -15
l26 0 -4 126 c-3 124 -3 126 -31 150 -23 20 -38 24 -90 23 -34 0 -72 -5 -84
-11z m147 -178 c0 -23 -7 -33 -31 -45 -45 -24 -83 -16 -87 17 -4 34 29 58 80
58 35 0 38 -2 38 -30z"/>
<path d="M1498 2253 c-2 -5 -2 -72 0 -151 l3 -143 27 3 27 3 3 110 c3 118 8
130 62 130 20 0 26 6 28 28 3 24 0 27 -28 27 -17 0 -40 -5 -50 -10 -13 -7 -21
-7 -25 0 -7 12 -42 14 -47 3z"/>
<path d="M1660 2256 c0 -3 23 -66 50 -140 l51 -135 -26 -60 c-14 -33 -25 -63
-25 -66 0 -4 14 -5 32 -3 32 3 33 4 105 193 39 105 72 196 72 203 1 7 -11 12
-27 12 -26 0 -30 -6 -63 -96 l-36 -96 -35 93 c-34 89 -38 94 -67 97 -17 2 -31
1 -31 -2z"/>
<path d="M2585 1597 c-5 -23 -14 -37 -26 -40 -26 -7 -26 -47 1 -47 19 0 20 -7
20 -108 0 -91 3 -111 18 -124 41 -37 106 -33 100 5 -2 16 -10 22 -28 22 -25 0
-25 1 -28 103 l-3 102 26 0 c20 0 25 5 25 25 0 20 -5 25 -24 25 -21 0 -25 6
-28 33 -2 24 -8 33 -25 35 -18 3 -23 -3 -28 -31z"/>
<path d="M1168 1549 c-20 -8 -28 -18 -28 -35 0 -28 4 -28 64 -12 54 14 96 0
96 -32 0 -11 -3 -20 -7 -20 -5 0 -35 -4 -67 -10 -76 -12 -106 -39 -106 -92 0
-52 13 -74 51 -87 43 -15 68 -14 103 4 21 11 31 12 36 4 8 -12 57 -9 53 4 -2
4 -3 56 -3 116 0 101 -2 112 -23 137 -20 23 -33 28 -83 30 -32 2 -71 -1 -86
-7z m132 -177 c0 -47 -59 -84 -100 -62 -35 19 -23 62 20 77 61 21 80 17 80
-15z"/>
<path d="M1513 1545 c-13 -9 -23 -11 -23 -6 0 6 -11 11 -25 11 l-25 0 0 -145
0 -145 30 0 30 0 0 108 c0 120 5 132 58 132 30 0 33 2 30 28 -4 33 -41 41 -75
17z"/>
<path d="M1720 1543 c-17 -12 -25 -13 -28 -5 -2 7 -15 12 -28 12 l-24 0 2
-202 3 -203 28 -3 27 -3 0 66 c0 60 2 66 18 60 41 -16 72 -16 105 0 46 22 67
67 67 145 0 97 -39 150 -110 150 -20 0 -46 -8 -60 -17z m85 -58 c20 -19 25
-34 25 -75 0 -28 -5 -60 -11 -71 -15 -29 -52 -40 -89 -28 -30 11 -30 11 -30
88 0 73 1 77 28 93 37 23 49 22 77 -7z"/>
<path d="M2008 1544 c-74 -40 -88 -195 -24 -259 29 -29 98 -41 155 -25 45 12
60 32 42 54 -10 11 -18 11 -52 -1 -59 -20 -119 5 -119 49 0 16 9 18 89 18 82
0 90 2 96 21 14 43 -18 125 -56 144 -36 19 -96 18 -131 -1z m111 -60 c36 -45
28 -54 -44 -54 -58 0 -65 2 -65 20 0 27 35 60 64 60 15 0 33 -11 45 -26z"/>
<path d="M2338 1546 c-16 -8 -28 -11 -28 -5 0 5 -14 9 -31 9 -28 0 -31 -3 -25
-22 3 -13 6 -78 6 -145 l0 -123 30 0 29 0 3 112 c3 110 4 113 30 127 21 12 31
13 52 3 26 -11 26 -12 26 -127 l0 -115 30 0 30 0 0 113 c0 61 -3 122 -6 135
-13 45 -92 66 -146 38z"/>
<path d="M2828 1543 c-11 -11 -18 -13 -18 -5 0 7 -13 12 -31 12 -28 0 -31 -3
-25 -22 3 -13 6 -78 6 -145 l0 -123 30 0 30 0 0 109 c0 118 4 127 55 133 24 2
30 8 30 28 0 20 -5 26 -30 28 -18 2 -37 -4 -47 -15z"/>
<path d="M2926 1551 c-3 -5 16 -68 44 -141 l50 -131 -25 -61 c-14 -34 -25 -65
-25 -70 0 -5 14 -8 31 -6 31 3 32 5 106 202 73 198 78 222 37 214 -13 -2 -29
-29 -51 -88 -18 -47 -34 -89 -36 -95 -5 -10 -7 -4 -53 118 -22 56 -29 67 -49
67 -13 0 -26 -4 -29 -9z"/>
<path d="M1090 858 c-1 -75 -13 -82 -135 -75 l-105 6 0 -40 c0 -37 2 -39 30
-39 17 0 30 5 30 10 0 6 35 10 85 10 78 0 85 -2 85 -20 0 -17 7 -20 45 -20 38
0 45 3 45 20 0 13 7 20 20 20 11 0 20 -4 20 -10 0 -5 25 -10 55 -10 l55 0 0
41 0 42 -73 -6 c-85 -6 -97 3 -97 73 0 38 -2 40 -30 40 -29 0 -30 -2 -30 -42z"/>
</g>
</svg>
