<?xml version="1.0" standalone="no"?>
<!DOCTYPE svg PUBLIC "-//W3C//DTD SVG 20010904//EN"
 "http://www.w3.org/TR/2001/REC-SVG-20010904/DTD/svg10.dtd">
<svg version="1.0" xmlns="http://www.w3.org/2000/svg"
 width="500.000000pt" height="500.000000pt" viewBox="0 0 500.000000 500.000000"
 preserveAspectRatio="xMidYMid meet">
<metadata>
Created by potrace 1.11, written by Peter Selinger 2001-2013
</metadata>
<g transform="translate(0.000000,500.000000) scale(0.100000,-0.100000)"
fill="#000000" stroke="none">
<path d="M2549 4952 c-13 -10 -78 -51 -144 -91 -66 -41 -142 -89 -170 -106
-49 -32 -136 -86 -320 -200 -49 -30 -120 -74 -157 -98 -37 -23 -143 -89 -235
-146 -93 -58 -244 -152 -338 -211 -93 -59 -226 -142 -295 -185 -69 -42 -126
-78 -128 -80 -5 -5 0 -1376 5 -1391 3 -7 40 11 91 42 48 29 110 66 137 82 28
16 174 102 325 192 151 90 285 168 297 174 13 6 23 14 23 19 0 4 5 7 10 7 6 0
47 23 91 50 44 28 84 50 87 50 4 0 20 10 35 23 l28 22 5 165 c2 91 7 174 9
186 3 14 70 61 212 149 684 423 1304 814 1331 840 11 10 -13 27 -120 91 -73
43 -141 84 -151 89 -9 6 -144 85 -298 178 -154 92 -286 167 -293 167 -7 0 -24
-8 -37 -18z"/>
<path d="M3079 3647 c-90 -57 -274 -172 -409 -257 -258 -162 -282 -178 -275
-190 2 -4 7 -87 10 -184 4 -97 8 -214 10 -259 2 -45 7 -163 10 -262 4 -99 8
-195 9 -212 1 -18 8 -39 16 -46 8 -8 128 -77 265 -154 138 -77 266 -149 285
-160 19 -11 56 -32 82 -46 26 -15 84 -47 128 -72 l80 -46 43 26 c23 14 134 84
247 155 113 72 283 179 378 238 l174 107 -7 190 c-18 465 -34 818 -38 820 -1
1 -40 22 -87 47 -47 25 -143 77 -215 115 -134 72 -241 129 -392 209 -49 26
-102 55 -119 65 l-31 19 -164 -103z"/>
<path d="M1830 2680 c-91 -52 -342 -198 -360 -209 -25 -16 -434 -255 -455
-267 -11 -6 -83 -48 -160 -94 -77 -45 -237 -139 -355 -208 -118 -69 -227 -132
-242 -141 -14 -9 -56 -33 -92 -54 -58 -33 -65 -40 -56 -57 5 -10 44 -72 85
-137 41 -65 94 -149 118 -186 23 -37 58 -94 78 -125 20 -31 128 -201 239 -377
111 -176 207 -326 214 -333 11 -11 47 8 210 110 108 68 314 197 459 287 144
91 438 275 652 409 215 135 409 257 433 273 l43 27 -63 35 c-35 19 -182 96
-328 172 -146 75 -268 140 -272 143 -9 9 -17 73 -33 262 -5 62 -9 98 -20 213
-9 82 -14 136 -21 217 -3 41 -7 76 -8 76 0 1 -30 -15 -66 -36z"/>
<path d="M4495 1968 c-154 -94 -333 -202 -397 -242 -371 -226 -823 -499 -841
-507 -18 -8 -51 4 -187 69 l-165 79 -90 -55 c-81 -50 -164 -102 -265 -167 -67
-43 -191 -120 -224 -140 -107 -64 -526 -331 -526 -335 0 -3 15 -13 33 -21 33
-15 322 -164 482 -249 50 -26 158 -82 240 -125 347 -179 441 -228 450 -236 16
-16 44 -10 88 18 23 15 51 33 62 39 11 6 232 140 490 299 852 522 1093 669
1175 718 l81 49 -6 56 c-3 32 -15 129 -25 217 -11 88 -22 178 -25 200 -6 50
-15 121 -20 160 -2 17 -6 57 -10 90 -4 33 -8 71 -11 85 -2 14 -7 54 -10 90 -4
36 -9 68 -13 71 -3 4 -132 -70 -286 -163z"/>
</g>
</svg>
